<svg xmlns="http://www.w3.org/2000/svg" viewBox="0 0 64 64" role="img" aria-labelledby="title desc">
  <title id="title">NeuroSaathi</title>
  <desc id="desc">A teal and blue neural support mark</desc>
  <defs>
    <linearGradient id="bg" x1="8" y1="8" x2="56" y2="56" gradientUnits="userSpaceOnUse">
      <stop stop-color="#2bb3a1"/>
      <stop offset="1" stop-color="#2d8bdb"/>
    </linearGradient>
  </defs>
  <rect width="64" height="64" rx="18" fill="url(#bg)"/>
  <path d="M21 36c-4-2-5-8-2-11 1-2 3-3 5-3 0-5 4-8 8-7 2-1 5 0 6 2 4-1 8 2 8 6 4 1 5 7 2 10 1 4-2 8-6 8-2 3-6 3-8 1-3 2-7 1-8-2-3 1-6 0-7-4Z" fill="#fff" fill-opacity=".94"/>
  <path d="M25 28c3 0 3 4 6 4s3-5 6-5 3 4 6 4M26 37c3-1 4-4 7-4s3 5 6 5 3-3 5-3" fill="none" stroke="#197a92" stroke-width="2.5" stroke-linecap="round"/>
  <circle cx="24" cy="22" r="2.5" fill="#fff"/>
  <circle cx="40" cy="19" r="2.5" fill="#fff"/>
  <circle cx="47" cy="31" r="2.5" fill="#fff"/>
  <circle cx="24" cy="42" r="2.5" fill="#fff"/>
</svg>
